# Blender v2.78 (sub 0) OBJ File: 'entity_model.blend'
# www.blender.org
mtllib entity_model.mtl
o Cube_Cube.001
v -0.167694 1.782548 -0.623352
v -0.423578 1.782548 -0.367468
v -0.423578 1.782548 -0.032080
v -0.167694 1.782548 0.223803
v 0.167694 1.782548 0.223803
v 0.423578 1.782548 -0.032081
v 0.423578 1.782548 -0.367468
v 0.167694 1.782548 -0.623352
v 0.395899 -1.000000 -1.199775
v 1.000000 -1.000000 -0.595673
v 0.423578 0.689169 -0.367468
v 0.167694 0.689169 -0.623352
v 1.000000 -1.000000 0.196124
v 0.395899 -1.000000 0.800225
v 0.167694 0.689169 0.223803
v 0.423578 0.689169 -0.032081
v -1.000000 -1.000000 -0.595673
v -0.395899 -1.000000 -1.199775
v -0.167694 0.689169 -0.623352
v -0.423578 0.689169 -0.367468
v -0.395899 -1.000000 0.800225
v -1.000000 -1.000000 0.196124
v -0.423578 0.689169 -0.032080
v -0.167694 0.689169 0.223803
v -0.262474 1.521083 -0.862756
v -0.262474 0.950633 -0.862756
v -0.662981 0.950633 -0.462248
v -0.662981 1.521083 -0.462248
v 0.262474 0.950633 0.463207
v 0.262474 1.521083 0.463207
v -0.262474 1.521083 0.463207
v -0.262474 0.950633 0.463207
v 0.262473 1.521083 -0.862756
v 0.262473 0.950633 -0.862756
v -0.662981 1.521083 0.062699
v -0.662981 0.950633 0.062699
v 0.662981 0.950633 0.062699
v 0.662981 1.521083 0.062699
v 0.662981 1.521083 -0.462248
v 0.662981 0.950633 -0.462248
v 0.067133 -1.000000 1.897857
v -0.067133 -1.000000 1.897857
vn 0.0000 0.3230 -0.9464
vn -0.9464 0.3230 0.0000
vn 0.0000 1.0000 -0.0000
vn -0.0000 0.6753 0.7375
vn 0.9464 0.3230 0.0000
vn 0.6701 0.3192 -0.6701
vn 0.6701 0.3192 0.6701
vn -0.6701 0.3192 0.6701
vn -0.6701 0.3192 -0.6701
vn 0.0000 -1.0000 0.0000
vn -0.5246 0.6705 -0.5246
vn 0.0000 0.6753 -0.7375
vn -0.5246 0.6705 0.5246
vn 0.5246 0.6705 0.5246
vn 0.5246 0.6705 -0.5246
vn -0.7375 0.6753 0.0000
vn 0.7375 0.6753 0.0000
vn 0.7375 -0.6753 0.0000
vn 1.0000 0.0000 0.0000
vn -0.7375 -0.6753 -0.0000
vn -1.0000 0.0000 0.0000
vn 0.5246 -0.6705 -0.5246
vn 0.7071 0.0000 -0.7071
vn 0.5246 -0.6705 0.5246
vn 0.7071 0.0000 0.7071
vn -0.5246 -0.6705 0.5246
vn -0.7071 0.0000 0.7071
vn 0.0000 -0.6753 -0.7375
vn 0.0000 0.0000 -1.0000
vn -0.5246 -0.6705 -0.5246
vn -0.7071 0.0000 -0.7071
vn 0.0000 -0.6753 0.7375
vn -0.0000 0.0000 1.0000
vn -0.9341 0.2217 0.2798
vn 0.9341 0.2217 0.2798
vn 0.0000 0.7039 0.7103
usemtl None
s off
f 18//1 19//1 12//1 9//1
f 22//2 23//2 20//2 17//2
f 3//3 4//3 5//3 6//3 7//3 8//3 1//3 2//3
f 31//4 30//4 5//4 4//4
f 10//5 11//5 16//5 13//5
f 9//6 12//6 11//6 10//6
f 15//7 14//7 13//7 16//7
f 23//8 22//8 21//8 24//8
f 19//9 18//9 17//9 20//9
f 13//10 14//10 21//10 22//10 17//10 18//10 9//10 10//10
f 25//11 28//11 2//11 1//11
f 33//12 25//12 1//12 8//12
f 35//13 31//13 4//13 3//13
f 30//14 38//14 6//14 5//14
f 39//15 33//15 8//15 7//15
f 28//16 35//16 3//16 2//16
f 38//17 39//17 7//17 6//17
f 16//18 11//18 40//18 37//18
f 37//19 40//19 39//19 38//19
f 20//20 23//20 36//20 27//20
f 27//21 36//21 35//21 28//21
f 11//22 12//22 34//22 40//22
f 40//23 34//23 33//23 39//23
f 15//24 16//24 37//24 29//24
f 29//25 37//25 38//25 30//25
f 23//26 24//26 32//26 36//26
f 36//27 32//27 31//27 35//27
f 12//28 19//28 26//28 34//28
f 34//29 26//29 25//29 33//29
f 19//30 20//30 27//30 26//30
f 26//31 27//31 28//31 25//31
f 24//32 15//32 29//32 32//32
f 32//33 29//33 30//33 31//33
f 42//34 24//34 21//34
f 14//35 15//35 41//35
f 24//36 42//36 41//36 15//36
f 21//10 14//10 41//10 42//10
